<svg xmlns="http://www.w3.org/2000/svg" viewBox="0 0 32 32">
  <rect width="32" height="32" rx="7" fill="#0a0e17"/>
  <g fill="#f5c518">
    <path d="M11 6.3h10v4.8c0 2.8-2.2 5-5 5s-5-2.2-5-5V6.3z"/>
    <rect x="15.1" y="15.6" width="1.8" height="3.9"/>
    <rect x="12.5" y="19.3" width="7" height="1.7" rx=".8"/>
    <rect x="11.3" y="21.4" width="9.4" height="2" rx="1"/>
  </g>
  <path d="M11 6.9H8.2v2.2c0 1.7 1.2 3.1 2.8 3.5M21 6.9h2.8v2.2c0 1.7-1.2 3.1-2.8 3.5" fill="none" stroke="#f5c518" stroke-width="1.3" stroke-linecap="round"/>
  <path d="M16 8.2l.7 1.5 1.6.2-1.2 1.1.3 1.6-1.4-.8-1.4.8.3-1.6L13.7 10l1.6-.2z" fill="#e11d2a"/>
</svg>
